<svg xmlns="http://www.w3.org/2000/svg" viewBox="0 0 420 240">
  <defs>
    <linearGradient id="emailGrad" x1="0%" y1="0%" x2="100%" y2="100%">
      <stop offset="0%" stop-color="#2dd4bf"/>
      <stop offset="100%" stop-color="#22d3ee"/>
    </linearGradient>
  </defs>
  <rect width="420" height="240" rx="20" fill="#151e32" stroke="rgba(245,158,11,0.22)" stroke-width="2"/>
  <!-- messy stack -->
  <g transform="translate(40,80)" opacity="0.85">
    <rect x="0" y="0" width="120" height="84" rx="12" fill="#0b1120" stroke="rgba(245,158,11,0.3)" stroke-width="2"/>
    <path d="M18 28h84M18 46h54" stroke="#94a3b8" stroke-width="4" stroke-linecap="round"/>
    <circle cx="100" cy="20" r="6" fill="#f59e0b"/>
    <circle cx="18" cy="70" r="5" fill="#f59e0b"/>
  </g>
  <path d="M165 122h40" stroke="rgba(148,163,184,0.25)" stroke-width="2" stroke-dasharray="5 4"/>
  <!-- sorted outputs -->
  <g transform="translate(226,50)">
    <rect x="0" y="0" width="150" height="56" rx="12" fill="#0b1120" stroke="rgba(52,211,153,0.35)" stroke-width="2"/>
    <circle cx="22" cy="28" r="10" fill="none" stroke="#34d399" stroke-width="2.5"/>
    <path d="M16 28l4 4 8-8" stroke="#34d399" stroke-width="2.5" stroke-linecap="round" stroke-linejoin="round"/>
    <path d="M46 22h68M46 36h52" stroke="#34d399" stroke-width="3" stroke-linecap="round"/>
  </g>
  <g transform="translate(226,134)">
    <rect x="0" y="0" width="150" height="56" rx="12" fill="#0b1120" stroke="rgba(34,211,238,0.35)" stroke-width="2"/>
    <circle cx="22" cy="28" r="10" fill="none" stroke="#22d3ee" stroke-width="2.5"/>
    <path d="M46 22h68M46 36h52" stroke="#22d3ee" stroke-width="3" stroke-linecap="round"/>
  </g>
</svg>
