<svg xmlns="http://www.w3.org/2000/svg" viewBox="0 0 420 240">
  <rect width="420" height="240" rx="20" fill="#151e32" stroke="rgba(245,158,11,0.22)" stroke-width="2"/>
  <!-- overdue invoice -->
  <g transform="translate(40,60)" opacity="0.85">
    <rect x="0" y="0" width="120" height="120" rx="16" fill="#0b1120" stroke="rgba(245,158,11,0.3)" stroke-width="2"/>
    <path d="M30 30h60M30 50h60M30 70h40" stroke="#94a3b8" stroke-width="3" stroke-linecap="round"/>
    <circle cx="90" cy="86" r="12" fill="#f59e0b"/>
    <path d="M84 86h12M90 80v12" stroke="#0b1120" stroke-width="2.5" stroke-linecap="round"/>
  </g>
  <path d="M175 120h40" stroke="rgba(148,163,184,0.25)" stroke-width="2" stroke-dasharray="5 4"/>
  <!-- friendly reminder sent -->
  <g transform="translate(240,55)">
    <rect x="0" y="0" width="150" height="130" rx="16" fill="#0b1120" stroke="rgba(52,211,153,0.35)" stroke-width="2"/>
    <path d="M20 35h110M20 55h90M20 75h70" stroke="#34d399" stroke-width="3" stroke-linecap="round"/>
    <g transform="translate(85,95)">
      <circle cx="12" cy="12" r="12" fill="#34d399"/>
      <path d="M6 12l4 4 8-8" stroke="#0b1120" stroke-width="2.5" stroke-linecap="round" stroke-linejoin="round"/>
    </g>
    <text x="22" y="110" fill="#f8fafc" font-family="Inter, sans-serif" font-size="11" font-weight="700">REMINDER SENT</text>
  </g>
</svg>
